<?xml version="1.0" encoding="UTF-8" standalone="no"?>
<!DOCTYPE svg PUBLIC "-//W3C//DTD SVG 1.1//EN" "http://www.w3.org/Graphics/SVG/1.1/DTD/svg11.dtd">
<svg width="100%" height="100%" viewBox="0 0 2732 2048" version="1.1" xmlns="http://www.w3.org/2000/svg" xmlns:xlink="http://www.w3.org/1999/xlink" xml:space="preserve" xmlns:serif="http://www.serif.com/" style="fill-rule:evenodd;clip-rule:evenodd;stroke-linecap:round;stroke-linejoin:round;stroke-miterlimit:1.5;">
    <g id="Layer1">
        <path d="M1218.33,724.666C1286.62,605.657 1400.5,512.052 1544.28,562.653C1592.88,579.758 1634.26,613.465 1659.58,658.486C1697.46,725.844 1695.26,836.222 1647.96,897.702C1629.05,922.276 1603.34,934.97 1581.03,943.459C1580.79,943.553 1602.44,973.848 1612.88,989.99C1646.13,1041.43 1679.42,1101.51 1696.71,1160C1726.08,1259.34 1729.36,1350.88 1702.02,1426.35C1657.33,1549.67 1538.11,1631.53 1371.05,1645.1C1187.44,1660.01 970.698,1651.52 844.975,1540.94C790.565,1493.08 749.198,1382.52 735.862,1312.31C727.32,1267.33 731.436,1215.03 741.544,1170.47C757.836,1098.66 804.467,1025.72 853.615,972.118C866.338,958.242 878.809,943.867 892.966,931.412C900.685,924.62 915.704,917.841 921.233,909.36C922.731,907.061 918.701,882.093 915.301,873.154C902.101,838.45 887.387,799.333 879.918,763.028C856.171,647.604 825.564,461.254 915.604,368.013C974.509,307.014 1047.42,309.925 1104.57,363.488C1169.89,424.723 1200.54,533.588 1211.37,619.805C1213.58,637.393 1218.58,657.742 1216.17,675.514" style="fill:none;stroke:white;stroke-width:75px;"/>
    </g>
    <g transform="matrix(1,0,0,1,-78.9272,96.6305)">
        <path d="M1658.59,847.306C1658.59,847.306 1768.93,996.016 1789.69,1091.65C1822.05,1240.76 1805.02,1379.51 1647.8,1487.03C1554.67,1550.73 1420.37,1551.5 1328.02,1552.44C1058.46,1555.2 938.824,1477.85 881.466,1394.6C809.226,1289.75 799.894,1182.55 819.724,1080.27C829.154,1031.64 848.959,986.168 884.564,931.14C909.381,892.784 946.336,846.633 1000.49,814.564C957.125,676.217 865.777,374.822 1011.62,253.227C1041.31,228.47 1072.47,217.615 1109.07,221.739C1147.39,226.058 1181.3,257.771 1203.75,286.94C1312.61,428.378 1294.95,598.46 1280.05,766.381L1290.83,630.941C1332.35,558.584 1395.93,478.011 1480.12,455.331C1667.43,404.868 1811.04,567.703 1752.96,749.532C1741.07,786.757 1718.09,824.37 1682.18,839.153C1674.44,842.342 1666.55,845.057 1658.59,847.306Z" style="fill:rgb(255,219,236);stroke:black;stroke-width:12px;"/>
        <path d="M1291.99,1238.85C1290.84,1252.42 1294.16,1269.86 1285.09,1281.46C1280.8,1286.96 1274.67,1289.06 1268.2,1290.89C1243.95,1297.75 1220.66,1283.2 1208.69,1262.92" style="fill:none;stroke:black;stroke-width:12px;"/>
        <g transform="matrix(-1,0,0,1,2583.98,2.27374e-13)">
            <path d="M1291.99,1238.85C1290.84,1252.42 1294.16,1269.86 1285.09,1281.46C1280.8,1286.96 1274.67,1289.06 1268.2,1290.89C1243.95,1297.75 1220.66,1283.2 1208.69,1262.92" style="fill:none;stroke:black;stroke-width:12px;"/>
        </g>
        <g transform="matrix(1,0,0,1,2.26934,-0.733387)">
            <path d="M1658.59,847.306C1577.88,870.092 1488.72,845.011 1447.49,780.705C1411.28,724.237 1420.65,616.348 1431.68,556.874" style="fill:none;stroke:black;stroke-width:12px;"/>
        </g>
        <path d="M1213.1,763.648C1177.75,768.7 1075.22,793.729 1068.4,791.662C1066.22,791 1044.57,704.373 1037.2,674.75C1020.63,608.154 992.492,502.882 1025.9,439.605C1054.17,386.049 1141.67,348.804 1179.76,409.252C1207.89,453.896 1213.73,515.01 1218.04,577.48C1222.67,644.685 1213.1,763.648 1213.1,763.648Z" style="fill:white;stroke:white;stroke-width:12px;"/>
        <g transform="matrix(1,0,0,1,-30.1195,-48.4063)">
            <circle cx="1214.76" cy="1193.13" r="27.968" style="stroke:black;stroke-width:12px;"/>
        </g>
        <g transform="matrix(1.23642,0,0,1,-210.156,16.5669)">
            <path d="M1214.49,1172.17C1229.92,1172.17 1246.64,1174.19 1246.64,1189.63C1246.64,1196.89 1239.03,1205.38 1234.46,1210.32C1228.67,1216.59 1222.93,1221.1 1214.76,1221.1C1207.28,1221.1 1200.75,1215.13 1195.74,1211.04C1188.49,1205.12 1182.34,1196.26 1182.34,1188.3C1182.34,1172.86 1199.05,1172.17 1214.49,1172.17Z" style="stroke:black;stroke-width:10.67px;"/>
        </g>
        <g transform="matrix(1,0,0,1,179.209,-48.4063)">
            <circle cx="1214.76" cy="1193.13" r="27.968" style="stroke:black;stroke-width:12px;"/>
        </g>
    </g>
    <g transform="matrix(-0.658972,0.752168,-0.721169,-0.631814,2546.99,1119.86)">
        <path d="M980.56,1053.73L997.793,1219.59L963.328,1219.59L980.56,1053.73Z" style="stroke:black;stroke-width:12.25px;"/>
    </g>
    <g transform="matrix(0.999533,0.0305531,-0.0305531,0.999533,43.0973,-24.4506)">
        <path d="M1281.74,1158.72L1337.52,1157.55" style="fill:none;stroke:black;stroke-width:12px;"/>
    </g>
</svg>
